# Blender 4.5.1 LTS
# www.blender.org
mtllib well.mtl
o building_well_blue
v 0.000021 -0.000002 0.000000
v 0.080385 0.116987 -0.194015
v 0.148514 0.116987 -0.148493
v 0.194036 0.116987 -0.080364
v 0.194036 0.116987 0.080363
v 0.148514 0.116987 0.148492
v 0.080385 0.116987 0.194014
v -0.080342 0.116987 0.194014
v -0.148471 0.116987 0.148492
v -0.193993 0.116987 0.080363
v -0.193993 0.116987 -0.080364
v -0.148471 0.116987 -0.148493
v -0.080342 0.116987 -0.194015
v 0.193068 0.139998 -0.193041
v 0.193068 0.139998 0.193040
v -0.193012 0.139998 0.193040
v -0.193012 0.139998 -0.193041
v 0.117367 0.209998 -0.117340
v 0.117367 0.209998 0.117339
v -0.117312 0.209998 0.117339
v -0.117312 0.209998 -0.117340
v 0.193068 0.209998 -0.193041
v 0.193068 0.209998 0.193040
v -0.193012 0.209998 0.193040
v -0.193012 0.209998 -0.193041
v 0.000027 0.139999 -0.000000
v 0.090643 0.139998 -0.254976
v 0.116248 0.139998 -0.244370
v 0.100000 0.149646 -0.241354
v 0.244397 0.139998 -0.116221
v 0.255003 0.139998 -0.090615
v 0.241382 0.149646 -0.099973
v 0.255003 0.139998 0.090614
v 0.244397 0.139998 0.116220
v 0.241382 0.149646 0.099972
v 0.116248 0.139998 0.244369
v 0.090643 0.139998 0.254975
v 0.100000 0.149645 0.241354
v -0.090587 0.139998 0.254975
v -0.116193 0.139998 0.244369
v -0.099944 0.149646 0.241354
v -0.244341 0.139998 0.116220
v -0.254948 0.139998 0.090614
v -0.241326 0.149646 0.099972
v -0.254948 0.139998 -0.090615
v -0.244341 0.139998 -0.116221
v -0.241326 0.149646 -0.099973
v -0.116193 0.139998 -0.244370
v -0.090587 0.139998 -0.254976
v -0.099944 0.149646 -0.241354
v 0.075288 0.209998 -0.145456
v 0.049663 0.209998 -0.156070
v 0.066239 0.199024 -0.159850
v 0.156098 0.209998 -0.049636
v 0.145483 0.209998 -0.075261
v 0.159877 0.199024 -0.066212
v 0.145483 0.209998 0.075260
v 0.156098 0.209998 0.049635
v 0.159877 0.199024 0.066211
v 0.049663 0.209998 0.156069
v 0.075288 0.209998 0.145455
v 0.066239 0.199024 0.159849
v -0.075233 0.209998 0.145455
v -0.049608 0.209998 0.156069
v -0.066184 0.199024 0.159849
v -0.156042 0.209998 0.049635
v -0.145428 0.209998 0.075260
v -0.159821 0.199024 0.066211
v -0.145428 0.209998 -0.075261
v -0.156042 0.209998 -0.049636
v -0.159821 0.199024 -0.066212
v -0.049608 0.209998 -0.156070
v -0.075233 0.209998 -0.145456
v -0.066184 0.199024 -0.159850
v 0.090637 0.209998 -0.254977
v 0.116253 0.209998 -0.244367
v 0.100000 0.200351 -0.241354
v 0.244394 0.209998 -0.116225
v 0.255004 0.209998 -0.090610
v 0.241381 0.200351 -0.099972
v 0.255004 0.209998 0.090609
v 0.244394 0.209998 0.116225
v 0.241381 0.200351 0.099971
v 0.116253 0.209998 0.244366
v 0.090637 0.209998 0.254976
v 0.100000 0.200351 0.241353
v -0.090582 0.209998 0.254976
v -0.116197 0.209998 0.244366
v -0.099944 0.200351 0.241353
v -0.244339 0.209998 0.116225
v -0.254949 0.209998 0.090609
v -0.241326 0.200351 0.099972
v -0.254949 0.209998 -0.090610
v -0.244339 0.209998 -0.116225
v -0.241326 0.200351 -0.099972
v -0.116197 0.209998 -0.244367
v -0.090582 0.209998 -0.254977
v -0.099944 0.200351 -0.241354
v 0.055688 0.139999 -0.134377
v 0.102875 0.139999 -0.102848
v 0.134404 0.139999 -0.055661
v 0.134404 0.139999 0.055660
v 0.102875 0.139999 0.102847
v 0.055688 0.139999 0.134376
v -0.055634 0.139999 0.134376
v -0.102821 0.139999 0.102847
v -0.134350 0.139999 0.055660
v -0.134350 0.139999 -0.055661
v -0.102821 0.139999 -0.102848
v -0.055634 0.139999 -0.134377
v -0.314957 0.336008 -0.000000
v 0.315043 0.336008 -0.000000
v 0.284336 0.319903 -0.008750
v 0.266836 0.319903 -0.008750
v 0.266836 0.319903 0.008750
v 0.284336 0.319903 0.008750
v 0.266836 0.236612 -0.017500
v 0.336836 0.236612 -0.017500
v 0.266836 0.221457 -0.008750
v 0.336836 0.221457 -0.008750
v 0.266836 0.221457 0.008750
v 0.336836 0.221457 0.008750
v 0.266836 0.236612 0.017500
v 0.336836 0.236612 0.017500
v 0.266836 0.251767 0.008750
v 0.336836 0.251767 0.008750
v 0.266836 0.251767 -0.008750
v 0.336836 0.251767 -0.008750
v 0.000043 0.124928 -0.008083
v 0.000043 0.309094 -0.008083
v 0.007043 0.124928 -0.004041
v 0.007043 0.309094 -0.004041
v 0.007043 0.124928 0.004041
v 0.007043 0.309094 0.004041
v 0.000043 0.124928 0.008083
v 0.000043 0.309094 0.008083
v -0.006957 0.124928 0.004041
v -0.006957 0.309094 0.004041
v -0.006957 0.124928 -0.004041
v -0.006957 0.309094 -0.004041
v -0.314957 0.336008 -0.027808
v -0.314957 0.316345 -0.019663
v -0.314957 0.308200 -0.000000
v -0.314957 0.316345 0.019663
v -0.314957 0.336008 0.027808
v -0.314957 0.355671 0.019663
v -0.314957 0.363816 -0.000000
v -0.314957 0.355671 -0.019663
v 0.315043 0.316345 -0.019663
v 0.315043 0.336008 -0.027808
v 0.315043 0.308200 -0.000000
v 0.315043 0.316345 0.019663
v 0.315043 0.336008 0.027808
v 0.315043 0.355671 0.019663
v 0.315043 0.363816 -0.000000
v 0.315043 0.355671 -0.019663
v 0.284336 0.251767 0.008750
v 0.284336 0.251767 -0.008750
v -0.017453 0.336011 -0.000001
v 0.017547 0.336011 -0.000001
v 0.017547 0.360095 -0.041715
v 0.017547 0.384178 -0.000001
v 0.017547 0.311927 -0.041715
v 0.017547 0.287844 -0.000001
v 0.017547 0.311927 0.041713
v 0.017547 0.360095 0.041713
v -0.017453 0.384178 -0.000001
v -0.017453 0.360095 -0.041715
v -0.017453 0.311927 -0.041715
v -0.017453 0.287844 -0.000001
v -0.017453 0.311927 0.041713
v -0.017453 0.360095 0.041713
v 0.080385 -0.000002 -0.194015
v 0.148514 -0.000002 -0.148493
v 0.194036 -0.000002 -0.080364
v 0.194036 -0.000002 0.080363
v 0.148514 -0.000002 0.148492
v 0.080385 -0.000002 0.194014
v -0.080342 -0.000002 0.194014
v -0.148471 -0.000002 0.148492
v -0.193993 -0.000002 0.080363
v -0.193993 -0.000002 -0.080364
v -0.148471 -0.000002 -0.148493
v -0.080342 -0.000002 -0.194015
v 0.238043 0.560020 0.209996
v -0.237957 0.560020 0.209996
v 0.169792 0.560020 0.209996
v -0.169708 0.560020 0.209996
v -0.237957 0.490020 0.301550
v -0.169708 0.490020 0.301550
v 0.169792 0.490020 0.301549
v 0.238043 0.490020 0.301549
v 0.238043 0.560020 0.034996
v -0.237957 0.560020 -0.035004
v -0.169708 0.560020 -0.035004
v 0.238043 0.560020 -0.035004
v -0.237957 0.210020 0.034996
v -0.169708 0.210020 0.034996
v 0.238043 0.210020 -0.035005
v -0.237957 0.350020 0.034996
v -0.237957 0.490020 0.174996
v -0.237957 0.559985 0.034996
v -0.237957 0.490020 -0.034969
v -0.237957 0.420020 0.053752
v -0.237957 0.471264 0.104996
v -0.169708 0.490020 0.174996
v -0.169708 0.350020 0.034996
v -0.169708 0.490020 -0.034969
v -0.169708 0.559985 0.034996
v -0.169708 0.471264 0.104996
v -0.169708 0.420020 0.053752
v 0.169792 0.350020 0.034996
v 0.169792 0.490020 0.174996
v 0.169792 0.559985 0.034996
v 0.169792 0.420020 0.053752
v 0.169792 0.471264 0.104996
v 0.238043 0.490020 0.174996
v 0.238043 0.350020 0.034996
v 0.238043 0.471264 0.104996
v 0.238043 0.420020 0.053752
v 0.238043 0.490020 0.034996
v 0.169792 0.490020 0.034996
v -0.237957 0.490020 0.034996
v -0.169708 0.490020 0.034996
v -0.272957 0.560020 -0.035004
v -0.272957 0.559985 0.034996
v 0.273043 0.560020 -0.035005
v 0.273043 0.560020 0.034996
v -0.237957 0.560020 -0.210008
v -0.169708 0.560020 -0.210008
v -0.169708 0.490020 -0.301562
v -0.237957 0.490020 -0.301562
v -0.169708 0.350020 -0.035008
v -0.169708 0.490020 -0.175008
v -0.169708 0.420020 -0.053765
v -0.169708 0.471264 -0.105008
v -0.237957 0.490020 -0.175008
v -0.236551 0.349152 -0.039286
v -0.237957 0.471264 -0.105008
v -0.237957 0.420020 -0.053765
v 0.169792 0.560020 -0.210008
v 0.238042 0.560020 -0.210008
v 0.238042 0.490020 -0.301563
v 0.169792 0.490020 -0.301562
v 0.169792 0.560020 -0.035008
v 0.238043 0.350020 -0.035008
v 0.238043 0.490020 -0.175008
v 0.238043 0.420020 -0.053765
v 0.238043 0.471264 -0.105008
v 0.169792 0.490020 -0.175008
v 0.169792 0.350020 -0.035008
v 0.169792 0.471264 -0.105008
v 0.169792 0.420020 -0.053765
v 0.169792 0.490020 -0.035008
v 0.238043 0.490020 -0.035008
v 0.169792 0.210015 -0.035006
v 0.169792 0.210015 0.034976
v 0.238043 0.210015 0.034976
v -0.169708 0.210015 -0.035006
v -0.237957 0.210015 -0.035006
v -0.169708 0.511045 -0.375362
v -0.169708 0.457422 -0.330367
v -0.169708 0.734545 -0.000000
v -0.244957 0.511045 -0.375362
v -0.244957 0.457422 -0.330367
v -0.244957 0.734545 -0.000000
v -0.244957 0.511045 0.375362
v -0.244957 0.826011 -0.000000
v -0.244957 0.457422 0.330367
v -0.169708 0.511045 0.375362
v -0.169708 0.826011 -0.000000
v -0.169708 0.457422 0.330367
v 0.245043 0.511045 -0.375362
v 0.245043 0.457422 -0.330367
v 0.245043 0.734545 -0.000000
v 0.169792 0.511045 -0.375362
v 0.169792 0.457422 -0.330367
v 0.169792 0.734545 -0.000000
v 0.169792 0.511045 0.375362
v 0.169792 0.826011 -0.000000
v 0.169792 0.457422 0.330367
v 0.245043 0.511045 0.375362
v 0.245043 0.826011 -0.000000
v 0.245043 0.457422 0.330367
v -0.175000 0.494221 -0.299241
v -0.105000 0.494221 -0.299241
v -0.035000 0.494221 -0.299241
v 0.035000 0.494221 -0.299241
v 0.105000 0.476223 -0.320691
v 0.175000 0.471723 -0.326053
v 0.175000 0.745292 -0.000000
v 0.105000 0.745292 -0.000000
v -0.175000 0.745292 -0.000000
v 0.175000 0.498535 -0.348550
v 0.105000 0.503035 -0.343188
v 0.035000 0.521033 -0.321739
v -0.035000 0.521033 -0.321739
v -0.105000 0.521033 -0.321739
v -0.175000 0.521033 -0.321739
v 0.035000 0.480723 -0.315328
v 0.035000 0.507534 -0.337826
v -0.035000 0.551481 -0.329012
v -0.105000 0.551481 -0.329012
v 0.175000 0.494221 0.299241
v 0.105000 0.494221 0.299241
v 0.035000 0.494221 0.299241
v -0.035000 0.494221 0.299241
v -0.105000 0.494221 0.299241
v -0.175000 0.476223 0.320690
v -0.105000 0.745291 -0.000000
v -0.035000 0.745291 -0.000000
v 0.035000 0.745291 -0.000000
v -0.175000 0.503034 0.343188
v -0.105000 0.521032 0.321739
v -0.035000 0.521032 0.321739
v 0.035000 0.521032 0.321739
v 0.105000 0.521032 0.321739
v 0.175000 0.521032 0.321739
v 0.175000 0.791003 -0.000000
v 0.105000 0.791003 -0.000000
v 0.035000 0.791003 -0.000000
v -0.035000 0.791003 -0.000000
v -0.105000 0.791003 -0.000000
v -0.175000 0.791003 -0.000000
v 0.105000 0.480722 0.315328
v 0.035000 0.471723 0.326053
v -0.105000 0.471723 0.326053
v -0.105000 0.498535 0.348550
v 0.035000 0.498535 0.348550
v 0.105000 0.507534 0.337826
v -0.035000 0.551480 0.329012
v 0.035000 0.551480 0.329012
v 0.146999 0.210002 0.140000
v 0.166753 0.315002 0.092311
v 0.194689 0.315002 0.120246
v 0.194689 0.315002 0.159754
v 0.166753 0.315002 0.187689
v 0.127246 0.315002 0.187689
v 0.099310 0.315002 0.159754
v 0.099310 0.315002 0.120246
v 0.127246 0.315002 0.092311
v 0.212381 0.315002 0.112918
v 0.174081 0.315002 0.074619
v 0.212381 0.315002 0.167082
v 0.174081 0.315002 0.205382
v 0.119917 0.315002 0.205382
v 0.081618 0.315002 0.167082
v 0.081618 0.315002 0.112918
v 0.119917 0.315002 0.074619
v 0.146999 0.287004 0.140000
v 0.171072 0.238002 0.081883
v 0.172577 0.287002 0.078251
v 0.208749 0.287002 0.114423
v 0.205116 0.238002 0.115927
v 0.208749 0.287002 0.165577
v 0.205116 0.238002 0.164073
v 0.172577 0.287002 0.201749
v 0.171072 0.238002 0.198117
v 0.121422 0.287002 0.201749
v 0.122927 0.238002 0.198117
v 0.085250 0.287002 0.165577
v 0.088882 0.238002 0.164073
v 0.085250 0.287002 0.114423
v 0.088882 0.238002 0.115927
v 0.121422 0.287002 0.078251
v 0.122927 0.238002 0.081883
v 0.174289 0.242662 0.074118
v 0.175994 0.282339 0.070000
v 0.216999 0.282339 0.111005
v 0.212882 0.242662 0.112711
v 0.216999 0.282339 0.168995
v 0.212882 0.242662 0.167289
v 0.175994 0.282339 0.210000
v 0.174289 0.242662 0.205882
v 0.118004 0.282339 0.210000
v 0.119710 0.242662 0.205882
v 0.076999 0.282339 0.168995
v 0.081117 0.242662 0.167289
v 0.076999 0.282339 0.111005
v 0.081117 0.242662 0.112711
v 0.118004 0.282339 0.070000
v 0.119710 0.242662 0.074118
v 0.187251 0.287004 0.123327
v 0.163672 0.287004 0.099749
v 0.187251 0.287004 0.156673
v 0.163672 0.287004 0.180251
v 0.130327 0.287004 0.180251
v 0.106748 0.287004 0.156673
v 0.106748 0.287004 0.123327
v 0.130327 0.287004 0.099749
v 0.169568 0.210002 0.085515
v 0.201484 0.210002 0.117432
v 0.201484 0.210002 0.162568
v 0.169568 0.210002 0.194485
v 0.124431 0.210002 0.194485
v 0.092515 0.210002 0.162568
v 0.092515 0.210002 0.117432
v 0.124431 0.210002 0.085515
vn 0.9569 -0.0000 -0.2903
vn 0.9569 -0.0000 0.2903
vn 0.2903 -0.0000 -0.9569
vn 0.7071 -0.0000 -0.7071
vn -0.7071 -0.0000 -0.7071
vn -0.2903 -0.0000 -0.9569
vn -0.9569 -0.0000 -0.2903
vn -0.0000 -0.9356 -0.3531
vn -0.7071 -0.0000 0.7071
vn -0.9569 -0.0000 0.2903
vn -0.2903 -0.0000 0.9569
vn 0.7071 -0.0000 0.7071
vn 0.2903 -0.0000 0.9569
vn 1.0000 -0.0000 -0.0000
vn 0.2811 -0.0000 -0.9597
vn -0.2810 -0.0000 -0.9597
vn -0.9597 -0.0000 -0.2811
vn -0.0000 -0.0000 1.0000
vn -0.9597 -0.0000 0.2811
vn -0.9597 -0.0000 0.2810
vn -0.2811 -0.0000 0.9597
vn -0.2426 -0.9393 -0.2426
vn -0.2902 -0.9371 -0.1939
vn 0.2426 -0.9393 0.2426
vn 0.1939 -0.9371 0.2902
vn -0.1939 -0.9371 -0.2902
vn -0.3532 -0.9356 -0.0000
vn 0.2426 -0.9393 -0.2426
vn 0.1939 -0.9371 -0.2902
vn -0.9399 0.3046 0.1543
vn -0.9519 0.3003 -0.0611
vn -0.9519 0.3003 0.0611
vn -0.2426 -0.9393 0.2426
vn -0.1939 -0.9371 0.2902
vn 0.2902 -0.9371 -0.1939
vn -0.2902 -0.9371 0.1939
vn -0.0000 -0.9356 0.3531
vn -1.0000 -0.0000 -0.0000
vn 0.2902 -0.9371 0.1939
vn 0.9597 -0.0000 -0.2810
vn 0.3531 -0.9356 -0.0000
vn 0.9597 -0.0000 0.2811
vn 0.2811 -0.0000 0.9597
vn 0.2810 -0.0000 0.9597
vn -0.0000 -0.0000 -1.0000
vn 0.6970 0.2984 0.6520
vn 0.6786 0.2810 0.6786
vn 0.6046 0.2869 0.7431
vn -0.6970 0.2984 0.6520
vn -0.6786 0.2810 0.6786
vn 0.2121 0.9733 0.0879
vn -0.2646 0.9574 0.1152
vn -0.2121 0.9733 0.0879
vn 0.9399 0.3046 -0.1543
vn 0.9519 0.3002 0.0611
vn 0.9519 0.3002 -0.0611
vn -0.0879 0.9733 0.2121
vn -0.1152 0.9574 -0.2646
vn -0.0879 0.9733 -0.2121
vn -0.6520 0.2984 -0.6970
vn -0.6786 0.2810 -0.6786
vn 0.0941 0.9693 0.2272
vn -0.0000 1.0000 -0.0000
vn -0.1544 0.3046 0.9399
vn 0.0611 0.3003 0.9519
vn 0.1544 0.3046 0.9399
vn -0.2121 0.9733 -0.0879
vn 0.2646 0.9574 -0.1152
vn 0.2121 0.9733 -0.0879
vn 0.6970 0.2984 -0.6520
vn 0.6786 0.2810 -0.6786
vn -0.2272 0.9693 0.0941
vn 0.0879 0.9733 -0.2121
vn 0.1152 0.9574 0.2646
vn 0.0879 0.9733 0.2121
vn 0.6521 0.2984 0.6970
vn -0.1544 0.3046 -0.9399
vn 0.0611 0.3003 -0.9519
vn -0.0611 0.3003 -0.9519
vn -0.0941 0.9693 -0.2272
vn 0.2272 0.9693 -0.0941
vn -0.2272 0.9693 -0.0941
vn -0.2470 0.9641 -0.0971
vn -0.6520 0.2984 0.6970
vn -0.7431 0.2869 0.6046
vn 0.6521 0.2984 -0.6970
vn 0.7431 0.2869 -0.6046
vn 0.2272 0.9693 0.0941
vn 0.2470 0.9641 0.0971
vn 0.0941 0.9693 -0.2272
vn 0.0971 0.9641 -0.2470
vn -0.6970 0.2984 -0.6520
vn -0.6046 0.2869 -0.7431
vn 0.7816 -0.6156 -0.1009
vn -0.4813 -0.6155 -0.6241
vn 0.6240 -0.6156 0.4813
vn 0.1009 -0.6156 -0.7816
vn 0.1009 -0.6156 0.7816
vn 0.6240 -0.6156 -0.4813
vn -0.4813 -0.6156 0.6241
vn 0.7816 -0.6156 0.1009
vn -0.7816 -0.6155 0.1010
vn 0.4813 -0.6156 0.6240
vn -0.6241 -0.6155 -0.4813
vn -0.1009 -0.6156 0.7816
vn -0.1009 -0.6156 -0.7816
vn -0.6241 -0.6155 0.4813
vn 0.4813 -0.6156 -0.6240
vn -0.7816 -0.6155 -0.1010
vn -0.8937 0.3027 0.3311
vn -0.6046 0.2869 0.7430
vn 0.3979 0.3026 0.8661
vn -0.9399 0.3046 -0.1543
vn -0.8661 0.3027 -0.3978
vn -0.3311 0.3027 0.8937
vn -0.3311 0.3027 -0.8937
vn -0.7431 0.2869 -0.6046
vn -0.8661 0.3027 0.3978
vn 0.1544 0.3046 -0.9399
vn 0.3979 0.3026 -0.8661
vn -0.8937 0.3027 -0.3311
vn 0.8937 0.3026 -0.3311
vn 0.6046 0.2869 -0.7431
vn -0.3979 0.3027 -0.8661
vn 0.9399 0.3046 0.1543
vn 0.8661 0.3026 0.3978
vn 0.3311 0.3027 -0.8937
vn 0.3311 0.3027 0.8937
vn 0.7431 0.2869 0.6046
vn 0.8661 0.3026 -0.3978
vn -0.3979 0.3027 0.8661
vn -0.0611 0.3003 0.9519
vn 0.8937 0.3026 0.3311
vn -0.9832 -0.0000 0.1824
vn -0.9832 -0.0000 0.1823
vn -0.5663 -0.0000 -0.8242
vn -0.5663 0.0001 -0.8242
vn 0.5663 -0.0000 0.8242
vn 0.5663 0.0001 0.8242
vn 0.9832 -0.0000 -0.1824
vn 0.9597 -0.0000 0.2810
vn 0.8242 -0.0000 0.5663
vn 0.8242 0.0001 0.5664
vn 0.8241 0.0001 0.5664
vn -0.1823 0.0001 0.9832
vn -0.8242 -0.0000 -0.5662
vn -0.8242 -0.0000 -0.5663
vn -0.8242 0.0001 -0.5663
vn 0.1824 -0.0000 -0.9832
vn 0.1823 -0.0000 -0.9832
vn 0.2810 -0.0000 -0.9597
vn -0.1823 -0.0000 -0.9832
vn 0.8242 0.0001 -0.5664
vn 0.8242 -0.0000 -0.5662
vn 0.8241 0.0001 -0.5664
vn 0.1824 -0.0000 0.9832
vn 0.1823 -0.0000 0.9832
vn -0.8242 -0.0000 0.5663
vn -0.8242 -0.0000 0.5664
vn 0.5663 -0.0000 -0.8242
vn 0.5664 -0.0000 -0.8242
vn 0.9832 -0.0000 0.1824
vn 0.9832 -0.0000 0.1823
vn -0.5663 -0.0000 0.8242
vn -0.5664 -0.0000 0.8242
vn -0.5664 0.0001 0.8241
vn -0.9832 -0.0000 -0.1823
vn -0.0941 0.9693 0.2272
vn -0.0971 0.9641 0.2470
vn -0.5696 0.7877 -0.2348
vn 0.5688 0.7876 0.2368
vn 0.2646 0.9574 0.1152
vn -0.2368 0.7876 -0.5688
vn 0.2348 0.7877 0.5696
vn 0.0971 0.9641 0.2470
vn 0.2348 0.7877 -0.5696
vn -0.2368 0.7876 0.5688
vn -0.1152 0.9574 0.2646
vn 0.5688 0.7876 -0.2368
vn -0.5696 0.7877 0.2348
vn -0.2470 0.9641 0.0971
vn 0.5696 0.7877 0.2348
vn -0.5688 0.7876 -0.2368
vn -0.2646 0.9574 -0.1152
vn 0.2368 0.7876 0.5688
vn -0.2348 0.7876 -0.5696
vn -0.0971 0.9641 -0.2470
vn -0.2348 0.7876 0.5696
vn 0.2368 0.7876 -0.5688
vn 0.1152 0.9574 -0.2646
vn -0.5688 0.7876 0.2368
vn -0.0000 -0.3827 -0.9239
vn -0.0000 -0.9239 -0.3827
vn -0.0000 -1.0000 -0.0000
vn -0.0000 -0.9239 0.3827
vn -0.0000 -0.3827 0.9239
vn -0.0000 0.3827 0.9239
vn -0.0000 0.7071 0.7071
vn -0.0000 0.9239 0.3827
vn -0.0000 0.9239 -0.3827
vn -0.0000 0.7071 -0.7071
vn -0.0000 0.3827 -0.9239
vn -0.0000 0.3437 0.9391
vn -0.0000 0.2588 0.9659
vn -0.0000 0.2588 -0.9659
vn -0.0000 0.3437 -0.9391
vn -0.0000 0.5000 -0.8660
vn -0.0000 0.5000 0.8660
vn -0.0000 -0.5000 -0.8660
vn -0.0000 -0.5000 0.8660
vn 0.5001 -0.0000 -0.8660
vn 0.5001 -0.0000 0.8660
vn -0.5001 -0.0000 0.8660
vn -0.5001 -0.0000 -0.8660
vn -0.0000 0.8660 -0.5000
vn -0.0000 -0.8660 -0.5000
vn -0.0000 -0.8660 0.5000
vn -0.0000 0.8660 0.5000
vn 0.5696 0.7877 -0.2348
vn 0.2470 0.9641 -0.0971
vn -0.0000 1.0000 0.0003
vn -0.0000 1.0000 -0.0002
vn -0.0003 1.0000 0.0002
vn -0.0001 1.0000 0.0001
vn -0.0000 -0.0005 -1.0000
vn -0.0000 -0.1306 0.9914
vn -0.0000 -0.0001 1.0000
vn -0.9935 -0.1141 -0.0000
vn -1.0000 -0.0045 -0.0035
vn -0.0000 -0.1305 0.9914
vn -0.0000 -0.9914 0.1305
vn 0.9935 -0.1141 -0.0000
vn -0.0003 1.0000 -0.0001
vn -0.0001 1.0000 -0.0000
vn -0.0000 -0.0004 -1.0000
vn -0.0001 -0.0001 -1.0000
vn -0.0001 -0.0000 -1.0000
vn -0.8944 -0.4473 -0.0001
vn -0.8944 -0.4472 -0.0002
vn -0.0000 1.0000 0.0005
vn 0.8944 -0.4472 -0.0000
vn -0.0000 0.0001 -1.0000
vn -0.0000 -0.9914 -0.1305
vn 0.0399 -0.1204 -0.9919
vn 0.0182 -0.0220 -0.9996
vn -0.0000 -0.0307 -0.9995
vn 0.0161 -0.4862 -0.8737
vn 0.0650 -0.1306 -0.9893
vn -0.0000 -0.4753 -0.8798
vn -1.0000 -0.0017 -0.0099
vn -0.9998 -0.0081 -0.0188
vn -0.0000 -0.1305 -0.9914
vn -1.0000 0.0029 -0.0059
vn -0.0000 -0.7661 0.6427
vn -0.0000 0.7660 -0.6428
vn -0.0000 -0.6428 -0.7660
vn -0.0000 -0.7661 -0.6427
vn -0.0000 0.7660 0.6428
vn -0.0000 -0.6428 0.7660
vn -0.0000 -0.5183 -0.8552
vn -0.0000 -0.2323 -0.9726
vn -0.0000 -0.7661 0.6428
vn -0.0995 -0.6396 -0.7623
vn -0.0995 -0.6396 -0.7622
vn -0.0000 0.8085 -0.5886
vn -0.0000 -0.5183 0.8552
vn -0.0000 -0.7661 -0.6428
vn -0.0995 -0.6396 0.7622
vn 0.1961 -0.6303 0.7512
vn -0.0000 0.7661 0.6428
vn -0.0000 -0.7660 -0.6428
vn -0.0000 0.8085 0.5886
vn -0.0000 -0.4496 0.8932
vn -0.0000 -0.2323 0.9726
vn 0.3790 -0.1390 -0.9149
vn 0.9149 -0.1390 -0.3790
vn 0.9149 -0.1390 0.3790
vn 0.3790 -0.1391 0.9149
vn -0.3790 -0.1391 0.9149
vn -0.9149 -0.1390 0.3790
vn -0.9149 -0.1390 -0.3790
vn -0.3678 0.2764 -0.8879
vn -0.8879 0.2764 -0.3678
vn -0.3790 -0.1390 -0.9149
vn -0.3678 0.2764 0.8879
vn -0.8879 0.2764 0.3678
vn 0.3678 0.2764 0.8879
vn 0.8879 0.2764 -0.3678
vn 0.8879 0.2764 0.3678
vn 0.3678 0.2764 -0.8879
vn 0.4480 -0.8746 -0.1856
vn 0.1856 -0.8746 -0.4480
vn 0.4480 -0.8746 -0.1855
vn -0.9149 -0.1391 -0.3790
vn -0.4480 -0.8746 0.1856
vn -0.1856 -0.8746 0.4480
vn -0.9149 -0.1391 0.3790
vn 0.4276 0.8864 0.1771
vn 0.4276 0.8864 -0.1771
vn -0.3790 -0.1390 0.9149
vn -0.4276 0.8864 -0.1771
vn -0.4276 0.8864 0.1771
vn 0.3790 -0.1390 0.9149
vn 0.4480 -0.8746 0.1855
vn 0.4480 -0.8746 0.1856
vn -0.4480 -0.8746 -0.1856
vn 0.1771 0.8864 0.4276
vn -0.1771 0.8864 -0.4276
vn -0.3803 -0.1116 -0.9181
vn 0.3803 -0.1116 -0.9181
vn -0.9181 -0.1116 -0.3803
vn -0.9181 -0.1116 0.3803
vn -0.3803 -0.1116 0.9181
vn 0.3803 -0.1116 0.9181
vn 0.9181 -0.1116 0.3803
vn 0.9181 -0.1116 -0.3803
vn -0.1771 0.8864 0.4276
vn -0.1856 -0.8746 -0.4480
vn 0.1855 -0.8746 -0.4480
vn 0.1771 0.8864 -0.4276
vn 0.1856 -0.8746 0.4480
vn 0.1855 -0.8746 0.4480
vn -0.9597 -0.0000 -0.2810
vn -0.2810 -0.0000 0.9597
vn -0.5662 -0.0000 -0.8242
vn 0.5664 -0.0000 0.8242
vn 0.9832 -0.0000 -0.1823
vn 0.8242 -0.0000 0.5662
vn -0.1824 -0.0000 0.9832
vn -0.8243 -0.0000 -0.5662
vn -0.1825 -0.0000 -0.9832
vn 0.8243 -0.0000 -0.5662
vn -0.8242 0.0001 0.5662
vn 0.5663 0.0001 -0.8242
vn -0.5662 -0.0000 0.8242
vn -0.9832 -0.0000 -0.1824
vn -0.5274 0.8245 -0.2050
vn 0.5179 0.8245 0.2279
vn -0.2279 0.8245 -0.5179
vn 0.2050 0.8245 0.5274
vn 0.2050 0.8245 -0.5274
vn -0.2279 0.8245 0.5179
vn 0.5179 0.8245 -0.2279
vn -0.5274 0.8245 0.2050
vn 0.5274 0.8245 0.2050
vn -0.5179 0.8245 -0.2279
vn 0.2279 0.8245 0.5179
vn -0.2050 0.8245 -0.5274
vn -0.2050 0.8245 0.5274
vn 0.2279 0.8245 -0.5179
vn -0.5179 0.8245 0.2279
vn 0.5274 0.8245 -0.2050
vn -0.0995 -0.6396 0.7623
vt 0.329394 0.838476
vt 0.329394 0.819446
vt 0.313959 0.838476
vt 0.323212 0.819446
vt 0.313959 0.819446
vt 0.282877 0.838476
vt 0.292130 0.819446
vt 0.282877 0.819446
vt 0.276695 0.838476
vt 0.276695 0.819446
vt 0.313959 0.807226
vt 0.290739 0.810969
vt 0.315352 0.810969
vt 0.292130 0.838476
vt 0.323212 0.838476
vt 0.337674 0.842219
vt 0.337675 0.853605
vt 0.329263 0.842219
vt 0.318831 0.853605
vt 0.329263 0.853605
vt 0.276828 0.842219
vt 0.287261 0.853605
vt 0.287261 0.842219
vt 0.269858 0.853605
vt 0.276828 0.853605
vt 0.290739 0.842219
vt 0.315352 0.853605
vt 0.290740 0.853605
vt 0.269857 0.842219
vt 0.282877 0.807226
vt 0.269857 0.810969
vt 0.276828 0.810969
vt 0.323212 0.807226
vt 0.318830 0.810969
vt 0.287261 0.810969
vt 0.292130 0.807226
vt 0.276695 0.807226
vt 0.268417 0.810969
vt 0.329263 0.810969
vt 0.324242 0.853605
vt 0.321295 0.842219
vt 0.336234 0.810969
vt 0.329394 0.807226
vt 0.268417 0.853605
vt 0.268417 0.842219
vt 0.336234 0.853605
vt 0.336234 0.842219
vt 0.337674 0.810969
vt 0.318830 0.842219
vt 0.315352 0.842219
vt 0.292824 0.853605
vt 0.289077 0.842219
vt 0.295486 0.842219
vt 0.313267 0.853605
vt 0.317014 0.842219
vt 0.318982 0.853605
vt 0.309787 0.884855
vt 0.290740 0.884855
vt 0.296304 0.884855
vt 0.281849 0.853605
vt 0.284796 0.842219
vt 0.324242 0.884855
vt 0.337675 0.884855
vt 0.322800 0.853605
vt 0.322800 0.884855
vt 0.329263 0.884855
vt 0.318982 0.884855
vt 0.296304 0.853605
vt 0.310605 0.842219
vt 0.309787 0.853605
vt 0.315352 0.884855
vt 0.287109 0.853605
vt 0.313267 0.884855
vt 0.066627 0.659673
vt 0.058407 0.659673
vt 0.066267 0.659673
vt 0.281849 0.884855
vt 0.268417 0.884855
vt 0.283291 0.853605
vt 0.283291 0.884855
vt 0.276828 0.884855
vt 0.287109 0.884855
vt 0.292824 0.884855
vt 0.318831 0.884855
vt 0.287261 0.884855
vt 0.336234 0.884855
vt 0.316623 0.812538
vt 0.335825 0.812538
vt 0.289468 0.812538
vt 0.270267 0.812538
vt 0.312038 0.851820
vt 0.324755 0.851820
vt 0.294053 0.851820
vt 0.281336 0.851820
vt 0.269858 0.837980
vt 0.270267 0.828163
vt 0.270267 0.836411
vt 0.270267 0.820786
vt 0.268417 0.822355
vt 0.337675 0.822355
vt 0.335825 0.828163
vt 0.336234 0.837980
vt 0.336234 0.826594
vt 0.315352 0.826594
vt 0.316623 0.836411
vt 0.315352 0.837980
vt 0.316623 0.820786
vt 0.318831 0.822355
vt 0.290739 0.826594
vt 0.289468 0.836411
vt 0.290740 0.837980
vt 0.287261 0.822355
vt 0.289468 0.820786
vt 0.318830 0.826594
vt 0.318831 0.837980
vt 0.315352 0.822355
vt 0.287261 0.837980
vt 0.289468 0.828163
vt 0.290740 0.822355
vt 0.337675 0.837980
vt 0.335824 0.836411
vt 0.336234 0.822355
vt 0.335824 0.820786
vt 0.268417 0.826594
vt 0.268417 0.837980
vt 0.269858 0.822355
vt 0.269858 0.884855
vt 0.318831 0.869230
vt 0.312038 0.867445
vt 0.313267 0.869230
vt 0.337675 0.869230
vt 0.324755 0.867445
vt 0.324242 0.869230
vt 0.336234 0.869230
vt 0.322800 0.869230
vt 0.315352 0.869230
vt 0.309787 0.869230
vt 0.287261 0.869230
vt 0.294053 0.867445
vt 0.292824 0.869230
vt 0.268417 0.869230
vt 0.281336 0.867445
vt 0.281849 0.869230
vt 0.269858 0.869230
vt 0.283291 0.869230
vt 0.290740 0.869230
vt 0.296304 0.869230
vt 0.071570 0.659673
vt 0.072440 0.659673
vt 0.069446 0.659673
vt 0.070112 0.659673
vt 0.058767 0.659673
vt 0.053465 0.659673
vt 0.052595 0.659673
vt 0.055589 0.659673
vt 0.054923 0.659673
vt 0.843813 0.907724
vt 0.776509 0.904681
vt 0.776509 0.907724
vt 0.843813 0.904681
vt 0.776509 0.903421
vt 0.843813 0.903421
vt 0.776509 0.910766
vt 0.843813 0.910766
vt 0.776509 0.912027
vt 0.843813 0.912027
vt 0.843737 0.887008
vt 0.841868 0.887008
vt 0.849346 0.883283
vt 0.841868 0.883283
vt 0.841868 0.879557
vt 0.849346 0.879557
vt 0.849346 0.933883
vt 0.849346 0.930158
vt 0.849346 0.887008
vt 0.685160 0.901104
vt 0.685908 0.855821
vt 0.685160 0.855821
vt 0.685908 0.901104
vt 0.684413 0.855821
vt 0.684413 0.901104
vt 0.776509 0.954599
vt 0.776509 0.951556
vt 0.776509 0.953298
vt 0.776509 0.950296
vt 0.776509 0.952759
vt 0.776509 0.957641
vt 0.776509 0.955899
vt 0.776509 0.958902
vt 0.776509 0.956438
vt 0.843813 0.952937
vt 0.843813 0.951556
vt 0.843813 0.954599
vt 0.843813 0.952249
vt 0.843813 0.950296
vt 0.843813 0.956261
vt 0.843813 0.957641
vt 0.843813 0.956949
vt 0.843813 0.958902
vt 0.849346 0.926432
vt 0.305425 0.881938
vt 0.300672 0.878020
vt 0.300672 0.881938
vt 0.305425 0.878020
vt 0.300672 0.870185
vt 0.305425 0.870185
vt 0.300672 0.866268
vt 0.305425 0.866268
vt 0.305425 0.842853
vt 0.305425 0.846770
vt 0.305425 0.850688
vt 0.305425 0.838935
vt 0.305425 0.835018
vt 0.300672 0.842853
vt 0.300672 0.850688
vt 0.300672 0.846770
vt 0.300672 0.838935
vt 0.300672 0.835018
vt 0.303045 0.788196
vt 0.313959 0.788196
vt 0.323212 0.788196
vt 0.329394 0.788196
vt 0.292130 0.788196
vt 0.282877 0.788196
vt 0.276695 0.788196
vt 0.829675 0.841398
vt 0.829675 0.845839
vt 0.856520 0.892712
vt 0.856520 0.892714
vt 0.829675 0.840208
vt 0.829675 0.845837
vt 0.829675 0.836957
vt 0.829675 0.832517
vt 0.789406 0.816892
vt 0.789406 0.808009
vt 0.829675 0.823634
vt 0.829675 0.823635
vt 0.802829 0.810148
vt 0.789406 0.821332
vt 0.789406 0.793333
vt 0.762561 0.793333
vt 0.762561 0.794523
vt 0.789406 0.808010
vt 0.816252 0.825773
vt 0.816252 0.830212
vt 0.816252 0.830214
vt 0.789406 0.816836
vt 0.829675 0.832461
vt 0.829675 0.842732
vt 0.829675 0.856911
vt 0.829675 0.839330
vt 0.802829 0.825661
vt 0.802829 0.808080
vt 0.856520 0.909589
vt 0.856520 0.889607
vt 0.816252 0.823705
vt 0.816252 0.827107
vt 0.087272 0.077671
vt 0.083734 0.077671
vt 0.083734 0.030796
vt 0.080195 0.030796
vt 0.090811 0.093296
vt 0.087272 0.093296
vt 0.090811 0.187954
vt 0.087272 0.124546
vt 0.090811 0.124546
vt 0.083734 0.125454
vt 0.080195 0.062046
vt 0.083734 0.062046
vt 0.080195 0.093296
vt 0.076657 0.156704
vt 0.076657 0.093296
vt 0.076657 0.124546
vt 0.073118 0.187954
vt 0.073118 0.124546
vt 0.080195 0.125454
vt 0.083734 0.172329
vt 0.087272 0.108921
vt 0.083734 0.108921
vt 0.087272 0.187954
vt 0.073118 0.093296
vt 0.076657 0.062046
vt 0.087272 0.172329
vt 0.037731 0.093296
vt 0.034192 0.093296
vt 0.041270 0.077671
vt 0.037731 0.077671
vt 0.044809 0.030796
vt 0.041270 0.030796
vt 0.051886 0.093296
vt 0.048347 0.093296
vt 0.051886 0.187954
vt 0.048347 0.124546
vt 0.051886 0.124546
vt 0.048347 0.172329
vt 0.044809 0.108921
vt 0.048347 0.108921
vt 0.041270 0.172329
vt 0.037731 0.108921
vt 0.041270 0.108921
vt 0.034192 0.156704
vt 0.037731 0.172329
vt 0.041270 0.125454
vt 0.044809 0.062046
vt 0.041270 0.062046
vt 0.044809 0.172329
vt 0.048347 0.187954
vt 0.037731 0.062046
vt 0.034192 0.062046
vt 0.048347 0.077671
vt 0.044809 0.077671
vt 0.044809 0.125454
vt 0.812500 0.852751
vt 0.841996 0.866653
vt 0.840357 0.852751
vt 0.841996 0.897903
vt 0.851896 0.884001
vt 0.840357 0.884001
vt 0.854213 0.866653
vt 0.851896 0.852751
vt 0.812500 0.884001
vt 0.783004 0.866653
vt 0.784643 0.852751
vt 0.783004 0.897903
vt 0.773104 0.884001
vt 0.784643 0.884001
vt 0.834014 0.866653
vt 0.838180 0.884004
vt 0.830659 0.884004
vt 0.770787 0.866653
vt 0.773104 0.852751
vt 0.812500 0.897903
vt 0.834014 0.897903
vt 0.842926 0.929153
vt 0.841996 0.929153
vt 0.834014 0.929153
vt 0.854213 0.897903
vt 0.842926 0.897903
vt 0.812500 0.929153
vt 0.790986 0.897903
vt 0.782074 0.929153
vt 0.783004 0.929153
vt 0.790986 0.929153
vt 0.782074 0.897903
vt 0.770787 0.897903
vt 0.812500 0.866653
vt 0.812500 0.915254
vt 0.786820 0.915254
vt 0.830659 0.915254
vt 0.838180 0.915254
vt 0.790986 0.866653
vt 0.786820 0.884004
vt 0.794341 0.884004
vt 0.786282 0.859668
vt 0.812500 0.845763
vt 0.787920 0.845763
vt 0.328275 0.850043
vt 0.312500 0.852358
vt 0.330383 0.852358
vt 0.775422 0.828418
vt 0.787920 0.814513
vt 0.777739 0.814513
vt 0.296725 0.850043
vt 0.294617 0.852358
vt 0.775422 0.859668
vt 0.777739 0.845763
vt 0.336204 0.936876
vt 0.331501 0.934559
vt 0.329261 0.936876
vt 0.812500 0.814513
vt 0.786282 0.828418
vt 0.288796 0.936876
vt 0.293500 0.934559
vt 0.295739 0.936876
vt 0.837080 0.845763
vt 0.812500 0.859668
vt 0.337790 0.852358
vt 0.334809 0.850043
vt 0.849578 0.828418
vt 0.837080 0.814513
vt 0.847261 0.814513
vt 0.290191 0.850043
vt 0.287210 0.852358
vt 0.838718 0.859668
vt 0.847261 0.845763
vt 0.339371 0.934559
vt 0.838718 0.828418
vt 0.285629 0.934559
vt 0.294617 0.883608
vt 0.312500 0.903309
vt 0.312500 0.883608
vt 0.285629 0.903309
vt 0.287210 0.883608
vt 0.293500 0.903309
vt 0.331501 0.903309
vt 0.330383 0.883608
vt 0.339371 0.903309
vt 0.337790 0.883608
vt 0.312500 0.934559
vt 0.312500 0.936876
vt 0.312500 0.850043
vt 0.062500 0.703382
vt 0.103096 0.640882
vt 0.079315 0.640882
vt 0.045684 0.640882
vt 0.021904 0.640882
vt 0.812500 0.798888
vt 0.837080 0.798888
vt 0.847261 0.798888
vt 0.787920 0.798888
vt 0.777739 0.798888
vt 0.269857 0.826594
vt 0.316623 0.828163
vt 0.287261 0.826594
vt 0.337674 0.826594
vt 0.316623 0.867661
vt 0.316623 0.852036
vt 0.335824 0.867661
vt 0.335824 0.852036
vt 0.289468 0.867661
vt 0.289468 0.852036
vt 0.270267 0.867661
vt 0.270267 0.852036
vt 0.829675 0.862714
vt 0.080195 0.156704
vt 0.076657 0.187954
vt 0.037731 0.156704
vt 0.842926 0.866653
vt 0.854213 0.929153
vt 0.770787 0.929153
vt 0.812500 0.884004
vt 0.794341 0.915254
vt 0.782074 0.866653
vt 0.812500 0.828418
vt 0.849578 0.859668
s 1
usemtl hexagons_medieval
f 4/1/1 176/2/2 175/2/1
f 2/3/3 174/4/4 173/5/3
f 12/6/5 184/7/6 183/8/5
f 11/9/7 183/8/5 182/10/7
f 2/11/8 49/12/8 27/13/8
f 9/6/9 181/10/10 180/8/9
f 8/14/11 180/8/9 179/7/11
f 10/9/10 182/10/7 181/10/10
f 6/15/12 178/5/13 177/4/12
f 5/1/2 177/4/12 176/2/2
f 7/3/13 179/7/11 178/5/13
f 3/15/4 175/2/1 174/4/4
f 31/16/14 81/17/14 33/16/14
f 14/18/4 76/19/15 22/20/4
f 17/21/5 96/22/16 48/23/16
f 17/21/5 94/24/17 25/25/5
f 39/26/18 85/27/18 87/28/18
f 16/21/9 90/24/19 42/29/20
f 16/21/9 88/22/21 24/25/9
f 12/30/22 46/31/23 17/32/22
f 6/33/24 36/34/25 7/11/25
f 12/30/22 48/35/26 13/36/26
f 10/37/27 45/38/27 11/37/27
f 3/33/28 28/34/29 14/39/28
f 58/40/30 101/41/31 102/41/32
f 9/30/33 40/35/34 16/32/33
f 3/33/28 30/42/35 4/43/35
f 9/30/33 42/31/36 10/37/36
f 7/11/37 39/12/37 8/36/37
f 91/44/38 45/45/38 43/45/38
f 6/33/24 34/42/39 15/39/24
f 14/18/4 78/46/40 30/47/40
f 4/43/41 33/48/41 5/43/41
f 15/18/12 82/46/42 23/20/12
f 15/18/12 84/19/43 36/49/44
f 49/26/45 75/27/45 27/50/45
f 73/51/46 109/52/47 110/53/48
f 51/54/49 100/55/50 18/56/50
f 52/57/51 97/58/52 72/59/53
f 70/60/54 107/61/55 108/61/56
f 58/62/57 79/63/58 54/62/59
f 57/64/60 103/55/61 19/56/61
f 55/65/62 22/66/63 18/67/63
f 72/68/64 99/69/65 52/70/66
f 64/59/67 85/71/68 60/57/69
f 63/51/70 106/52/71 20/72/71
f 61/73/72 23/66/63 19/67/63
f 99/74/63 110/75/63 26/76/63
f 70/77/73 91/78/74 66/77/75
f 69/79/76 109/52/47 21/72/47
f 64/68/77 104/69/78 105/53/79
f 67/80/80 24/81/63 20/82/63
f 73/83/81 25/81/63 21/82/63
f 51/73/82 22/66/63 76/84/83
f 55/64/84 100/55/50 101/41/85
f 67/79/86 106/52/71 107/61/87
f 63/83/88 24/81/63 88/85/89
f 57/65/90 23/66/63 82/86/91
f 61/54/92 103/55/61 104/69/93
f 27/13/94 29/87/94 2/11/94
f 29/87/95 28/34/95 2/11/95
f 30/42/96 32/88/96 4/43/96
f 32/88/97 31/48/97 4/43/97
f 33/48/98 35/88/98 5/43/98
f 35/88/99 34/42/99 5/43/99
f 36/34/100 38/87/100 7/11/100
f 38/87/101 37/13/101 7/11/101
f 39/12/102 41/89/102 8/36/102
f 41/89/103 40/35/103 8/36/103
f 42/31/104 44/90/104 10/37/104
f 44/90/105 43/38/105 10/37/105
f 45/38/106 47/90/106 11/37/106
f 47/90/107 46/31/107 11/37/107
f 48/35/108 50/89/108 13/36/108
f 50/89/109 49/12/109 13/36/109
f 51/54/49 53/91/110 99/69/111
f 53/91/112 52/70/66 99/69/65
f 54/40/113 56/92/114 101/41/31
f 56/92/115 55/64/84 101/41/85
f 57/64/60 59/92/116 102/41/117
f 59/92/118 58/40/30 102/41/32
f 60/70/119 62/91/120 104/69/78
f 62/91/121 61/54/92 104/69/93
f 63/51/70 65/93/122 105/53/123
f 65/93/124 64/68/77 105/53/79
f 66/60/125 68/94/126 107/61/55
f 68/94/127 67/79/86 107/61/87
f 69/79/76 71/94/128 108/61/129
f 71/94/130 70/60/54 108/61/56
f 72/68/64 74/93/131 110/53/132
f 74/93/133 73/51/46 110/53/48
f 94/95/17 47/96/134 95/97/135
f 95/98/136 45/38/136 93/99/137
f 81/100/138 35/88/138 33/48/139
f 35/101/140 82/102/42 34/103/141
f 37/104/142 86/105/143 85/106/144
f 86/107/145 36/34/44 84/108/43
f 49/109/146 98/110/147 97/111/148
f 50/89/149 96/112/16 98/113/150
f 28/114/151 77/105/152 76/115/15
f 77/107/153 27/13/154 75/116/155
f 88/117/21 41/118/156 89/110/157
f 41/89/158 87/119/158 89/113/159
f 79/120/160 32/101/160 80/121/161
f 32/88/162 78/122/40 80/123/163
f 43/124/164 92/97/165 91/125/166
f 92/98/167 42/31/20 90/126/19
f 69/80/168 25/81/63 94/127/169
f 76/128/83 53/129/170 51/130/82
f 53/91/171 75/27/172 52/70/51
f 79/131/58 56/132/173 54/133/59
f 56/92/174 78/46/175 55/64/62
f 82/134/91 59/132/176 57/135/90
f 59/92/177 81/17/178 58/40/57
f 85/136/68 62/129/179 60/137/69
f 62/91/180 84/19/181 61/54/72
f 88/138/89 65/139/182 63/140/88
f 65/93/183 87/28/184 64/68/67
f 91/141/74 68/142/185 66/143/75
f 68/94/186 90/24/187 67/79/80
f 94/144/169 71/142/188 69/145/168
f 71/94/189 93/44/190 70/60/73
f 97/146/52 74/139/191 72/147/53
f 26/148/63 102/149/63 101/149/63
f 26/150/63 100/151/63 99/74/63
f 26/148/63 101/149/63 100/151/63
f 26/152/63 105/75/63 104/74/63
f 26/150/63 103/151/63 102/149/63
f 26/76/63 104/74/63 103/151/63
f 26/153/63 108/154/63 107/154/63
f 26/155/63 106/156/63 105/75/63
f 26/153/63 107/154/63 106/156/63
f 26/155/63 109/156/63 108/154/63
f 26/152/63 110/75/63 109/156/63
f 150/157/192 142/158/192 141/159/192
f 149/160/193 143/161/194 142/158/193
f 151/162/194 144/158/195 143/161/194
f 152/160/196 145/159/196 144/158/196
f 153/157/197 146/163/198 145/159/197
f 154/164/198 147/165/199 146/163/198
f 155/166/200 148/163/201 147/165/200
f 156/164/201 141/159/202 148/163/201
f 157/167/203 115/168/18 125/168/204
f 127/168/205 113/167/45 158/167/206
f 158/167/206 118/169/207 117/170/207
f 125/168/38 114/168/38 127/168/38
f 125/168/204 123/170/208 157/167/203
f 118/169/209 119/171/209 117/170/209
f 120/172/194 121/171/194 119/171/194
f 122/172/210 123/170/210 121/171/210
f 128/173/14 124/174/14 118/174/14
f 126/175/63 158/167/63 157/167/63
f 124/169/208 157/167/203 123/170/208
f 119/171/38 123/170/38 117/170/38
f 130/176/211 131/177/211 129/178/211
f 132/179/14 133/177/14 131/177/14
f 134/179/212 135/178/212 133/177/212
f 136/176/213 137/180/213 135/178/213
f 138/181/38 139/180/38 137/180/38
f 140/181/214 129/178/214 139/180/214
f 111/182/38 141/182/38 142/183/38
f 111/184/38 142/183/38 143/185/38
f 111/186/38 143/185/38 144/183/38
f 111/184/38 144/183/38 145/182/38
f 111/182/38 145/182/38 146/187/38
f 111/188/38 146/187/38 147/189/38
f 111/190/38 147/189/38 148/187/38
f 111/188/38 148/187/38 141/182/38
f 112/191/14 149/192/14 150/193/14
f 112/194/14 151/195/14 149/192/14
f 112/191/14 152/192/14 151/195/14
f 112/193/14 153/193/14 152/192/14
f 112/196/14 154/197/14 153/193/14
f 112/198/14 155/199/14 154/197/14
f 112/196/14 156/197/14 155/199/14
f 112/193/14 150/193/14 156/197/14
f 173/5/3 13/14/6 2/3/3
f 158/167/14 116/167/14 157/167/14
f 117/170/38 125/168/38 127/168/38
f 118/174/14 122/200/14 120/200/14
f 127/168/205 158/167/206 117/170/207
f 162/201/215 168/202/215 167/203/215
f 161/204/45 169/205/45 168/202/45
f 163/206/216 170/207/216 169/205/216
f 164/208/217 171/205/217 170/207/217
f 165/206/18 172/202/18 171/205/18
f 166/204/218 167/203/218 172/202/218
f 160/209/14 161/210/14 162/211/14
f 160/209/14 163/212/14 161/210/14
f 160/209/14 164/213/14 163/212/14
f 160/209/14 165/212/14 164/213/14
f 160/209/14 166/210/14 165/212/14
f 160/209/14 162/211/14 166/210/14
f 159/214/38 167/215/38 168/216/38
f 159/214/38 168/216/38 169/217/38
f 159/214/38 169/217/38 170/218/38
f 159/214/38 170/218/38 171/217/38
f 159/214/38 171/217/38 172/216/38
f 159/214/38 172/216/38 167/215/38
f 1/219/194 173/220/194 174/221/194
f 1/219/194 174/221/194 175/222/194
f 1/219/194 175/222/194 176/222/194
f 1/219/194 176/222/194 177/221/194
f 1/219/194 177/221/194 178/220/194
f 1/219/194 178/220/194 179/223/194
f 1/219/194 179/223/194 180/224/194
f 1/219/194 180/224/194 181/225/194
f 1/219/194 181/225/194 182/225/194
f 1/219/194 182/225/194 183/224/194
f 1/219/194 183/224/194 184/223/194
f 1/219/194 184/223/194 173/220/194
f 74/93/219 96/22/220 73/51/81
f 206/226/14 188/227/14 190/226/14
f 217/226/14 185/227/14 192/226/14
f 187/227/38 213/226/38 191/226/38
f 209/228/221 186/229/222 188/229/222
f 206/226/14 210/230/14 224/226/14
f 209/231/18 222/226/18 214/231/18
f 186/227/38 201/226/38 189/226/38
f 210/230/14 211/232/14 224/226/14
f 214/228/223 196/229/224 245/229/221
f 194/227/225 203/226/225 225/227/225
f 220/232/14 246/233/14 248/232/14
f 212/234/226 258/235/227 218/234/226
f 258/236/14 246/233/14 218/233/14
f 209/228/221 194/229/221 202/228/221
f 198/237/14 233/233/14 207/233/14
f 204/232/38 205/230/38 223/226/228
f 204/232/38 203/226/228 240/232/229
f 222/238/194 208/238/194 254/238/194
f 223/226/228 201/226/38 202/231/38
f 222/226/38 213/226/38 214/231/38
f 207/234/230 204/239/210 200/234/230
f 211/239/210 205/240/217 204/239/210
f 210/241/217 201/242/231 205/241/217
f 218/234/226 215/239/210 212/234/226
f 220/239/210 216/240/217 215/239/210
f 219/241/217 213/242/231 216/241/217
f 200/234/230 198/243/18 207/234/230
f 193/227/14 217/226/14 221/226/232
f 216/230/38 213/226/38 222/226/38
f 205/230/38 201/226/38 223/226/228
f 211/232/14 233/233/14 235/232/14
f 209/231/14 206/226/14 224/226/14
f 217/226/14 219/230/14 221/226/232
f 219/230/14 220/232/14 221/226/232
f 215/232/38 251/233/38 212/233/38
f 215/232/38 216/230/38 222/226/38
f 193/229/233 187/229/234 185/229/63
f 208/226/235 245/227/236 254/226/237
f 195/229/221 214/228/223 245/229/221
f 203/244/228 226/245/238 225/246/239
f 223/226/18 202/231/18 226/231/18
f 194/229/221 226/228/240 202/228/221
f 221/244/232 227/246/241 228/246/241
f 193/227/18 221/226/18 228/227/18
f 196/229/224 228/229/63 227/229/63
f 255/226/242 196/227/242 227/227/242
f 234/242/243 232/242/194 231/242/194
f 237/226/38 229/227/38 232/226/38
f 230/227/14 234/226/14 231/226/14
f 238/247/244 259/235/245 260/235/246
f 208/226/14 234/226/14 195/227/14
f 238/247/244 235/239/247 233/234/248
f 240/239/249 236/240/216 235/239/247
f 239/241/216 234/242/243 236/241/216
f 194/227/38 237/226/38 203/226/228
f 200/233/250 240/232/229 238/248/251
f 236/230/14 234/226/14 208/226/14
f 237/226/38 239/230/38 203/226/228
f 239/230/38 240/232/229 203/226/228
f 211/232/14 208/226/14 224/226/14
f 235/232/14 236/230/14 208/226/14
f 194/229/221 230/229/63 229/229/63
f 247/242/243 244/242/194 243/242/194
f 250/226/38 241/227/38 244/226/38
f 242/227/14 247/226/14 243/226/14
f 251/234/252 199/243/45 256/235/45
f 255/226/232 247/226/14 196/227/14
f 251/234/252 248/239/209 246/234/252
f 253/239/209 249/240/216 248/239/209
f 252/241/216 247/242/243 249/241/216
f 245/227/38 250/226/38 254/226/38
f 254/226/38 215/232/38 222/226/38
f 249/230/14 247/226/14 255/226/232
f 250/226/38 252/230/38 254/226/38
f 252/230/38 253/232/38 254/226/38
f 220/232/14 255/226/232 221/226/232
f 248/232/14 249/230/14 255/226/232
f 245/229/221 242/229/63 241/229/63
f 200/233/250 260/236/253 197/237/38
f 257/236/38 251/233/38 256/236/38
f 190/242/194 201/242/231 206/242/231
f 217/242/231 191/242/194 213/242/231
f 261/249/14 263/250/14 262/251/14
f 263/252/254 265/253/254 262/253/254
f 266/250/38 264/249/38 265/251/38
f 268/254/255 261/255/255 264/255/255
f 265/256/256 261/257/256 262/256/256
f 267/249/38 266/250/38 269/251/38
f 266/252/257 272/253/257 269/253/257
f 263/250/14 270/249/14 272/251/14
f 271/254/258 267/255/258 270/255/258
f 272/256/259 267/257/259 269/256/259
f 273/249/14 275/250/14 274/251/14
f 275/252/254 277/253/254 274/253/254
f 278/250/38 276/249/38 277/251/38
f 280/254/255 273/255/255 276/255/255
f 277/256/256 273/257/256 274/256/256
f 279/249/38 278/250/38 281/251/38
f 278/252/257 284/253/257 281/253/257
f 275/250/14 282/249/14 284/251/14
f 283/254/258 279/255/258 282/255/258
f 284/256/259 279/257/259 281/256/259
f 298/258/260 302/259/261 297/259/260
f 287/260/256 296/261/256 288/261/256
f 286/258/256 297/259/260 287/259/256
f 285/262/256 298/263/260 286/263/256
f 324/264/255 298/265/255 299/266/255
f 322/267/255 296/268/255 297/269/255
f 296/270/255 320/271/255 295/272/255
f 295/273/255 319/274/255 294/275/255
f 291/274/262 289/273/262 290/275/262
f 292/271/262 288/270/262 289/272/262
f 312/276/262 287/269/262 288/268/262
f 311/277/262 286/278/262 287/279/262
f 310/280/262 285/266/262 286/265/262
f 289/272/263 294/281/263 290/281/263
f 289/282/263 301/268/264 295/282/263
f 296/270/255 295/272/255 301/270/255
f 296/261/38 300/261/38 288/261/38
f 289/272/262 288/270/262 300/270/262
f 323/283/265 302/279/265 303/278/265
f 298/265/38 323/280/38 303/265/38
f 322/267/14 297/269/14 302/269/14
f 314/284/258 313/285/258 328/284/258
f 307/286/259 314/287/259 308/287/259
f 306/288/259 315/289/266 307/289/259
f 304/290/259 317/291/259 305/291/259
f 319/292/258 317/293/258 318/294/258
f 320/295/258 316/296/258 317/297/258
f 322/298/258 314/299/258 315/300/258
f 314/284/258 324/301/258 313/285/258
f 293/301/267 308/284/267 309/285/267
f 310/302/267 307/300/267 308/299/267
f 311/303/267 306/304/267 307/305/267
f 312/306/267 305/297/267 306/296/267
f 292/307/267 304/294/267 305/293/267
f 327/308/268 313/309/268 309/309/268
f 325/310/269 329/311/269 326/311/269
f 316/296/258 330/297/270 317/297/258
f 306/296/267 325/297/271 326/296/271
f 314/287/14 327/287/14 308/287/14
f 309/285/267 308/284/267 327/284/271
f 306/288/38 329/288/38 316/288/38
f 317/291/14 325/291/14 305/291/14
f 321/312/272 331/305/272 332/304/272
f 316/296/14 321/306/14 332/296/14
f 322/298/38 315/300/38 331/300/38
f 316/288/273 331/289/274 315/289/266
f 352/313/275 342/314/276 353/315/276
f 342/316/276 355/317/277 353/318/276
f 344/319/277 357/315/278 355/320/277
f 345/316/278 359/321/279 357/318/278
f 359/313/279 347/322/280 361/323/280
f 347/324/280 363/325/281 361/326/280
f 337/327/282 385/328/283 386/329/282
f 348/330/281 365/323/284 363/331/281
f 365/326/284 343/332/275 352/321/275
f 335/333/63 343/332/63 334/332/63
f 336/334/63 342/335/63 335/336/63
f 337/333/63 344/337/63 336/338/63
f 338/339/63 345/335/63 337/336/63
f 339/340/63 346/332/63 338/332/63
f 340/341/63 347/342/63 339/343/63
f 340/344/63 349/324/63 348/345/63
f 334/346/285 383/329/286 335/327/286
f 341/340/287 384/347/285 334/332/285
f 339/340/288 389/348/289 340/344/289
f 337/333/282 387/347/290 338/332/290
f 336/338/283 383/349/286 385/350/283
f 341/351/287 389/352/289 390/353/287
f 338/346/290 388/353/288 339/351/288
f 366/354/284 391/355/275 398/356/284
f 354/357/291 367/358/292 370/359/293
f 364/360/294 398/361/284 397/362/294
f 362/363/295 376/358/296 378/364/295
f 396/356/297 364/365/294 397/366/294
f 355/367/298 369/368/299 353/369/299
f 395/370/300 362/371/297 396/361/297
f 363/372/301 377/373/302 361/374/302
f 394/375/303 360/376/300 395/355/300
f 354/357/291 372/377/304 356/378/305
f 356/379/277 394/380/303 393/381/277
f 364/382/306 378/364/295 380/383/306
f 354/384/276 393/385/277 392/375/276
f 357/369/307 371/386/298 355/367/298
f 391/370/275 354/387/276 392/380/276
f 365/374/308 379/388/301 363/372/301
f 382/389/309 368/390/310 367/391/310
f 379/392/311 382/389/309 380/393/311
f 377/394/312 380/393/311 378/389/312
f 375/390/313 378/389/312 376/391/313
f 373/395/314 376/391/313 374/396/314
f 371/397/315 374/396/314 372/398/315
f 370/396/316 371/397/315 372/398/315
f 367/391/310 369/395/316 370/396/316
f 361/374/302 375/399/317 359/400/317
f 366/363/318 367/358/292 351/401/319
f 352/400/320 369/368/299 368/399/320
f 360/401/296 374/359/321 376/358/296
f 365/374/308 368/399/320 381/373/308
f 359/400/317 373/368/307 357/369/307
f 364/382/306 382/364/318 366/363/318
f 356/378/305 374/359/321 358/357/322
f 350/402/63 383/403/63 384/404/63
f 350/402/63 385/403/63 383/403/63
f 350/402/63 386/404/63 385/403/63
f 350/402/63 387/405/63 386/404/63
f 350/402/63 388/406/63 387/405/63
f 350/402/63 389/406/63 388/406/63
f 350/402/63 390/405/63 389/406/63
f 350/402/63 384/404/63 390/405/63
f 333/407/194 391/407/194 392/408/194
f 333/407/194 392/408/194 393/409/194
f 333/407/194 393/409/194 394/408/194
f 333/407/194 394/408/194 395/407/194
f 333/407/194 395/407/194 396/410/194
f 333/407/194 396/410/194 397/411/194
f 333/407/194 397/411/194 398/410/194
f 333/407/194 398/410/194 391/407/194
f 341/343/63 343/339/63 349/342/63
f 4/1/1 5/1/2 176/2/2
f 2/3/3 3/15/4 174/4/4
f 12/6/5 13/14/6 184/7/6
f 11/9/7 12/6/5 183/8/5
f 2/11/8 13/36/8 49/12/8
f 9/6/9 10/9/10 181/10/10
f 8/14/11 9/6/9 180/8/9
f 10/9/10 11/9/7 182/10/7
f 6/15/12 7/3/13 178/5/13
f 5/1/2 6/15/12 177/4/12
f 7/3/13 8/14/11 179/7/11
f 3/15/4 4/1/1 175/2/1
f 31/16/14 79/17/14 81/17/14
f 14/18/4 28/49/151 76/19/15
f 17/21/5 25/25/5 96/22/16
f 17/21/5 46/29/323 94/24/17
f 39/26/18 37/50/18 85/27/18
f 16/21/9 24/25/9 90/24/19
f 16/21/9 40/23/324 88/22/21
f 12/30/22 11/37/23 46/31/23
f 6/33/24 15/39/24 36/34/25
f 12/30/22 17/32/22 48/35/26
f 10/37/27 43/38/27 45/38/27
f 3/33/28 2/11/29 28/34/29
f 58/40/30 54/40/113 101/41/31
f 9/30/33 8/36/34 40/35/34
f 3/33/28 14/39/28 30/42/35
f 9/30/33 16/32/33 42/31/36
f 7/11/37 37/13/37 39/12/37
f 91/44/38 93/44/38 45/45/38
f 6/33/24 5/43/39 34/42/39
f 14/18/4 22/20/4 78/46/40
f 4/43/41 31/48/41 33/48/41
f 15/18/12 34/47/141 82/46/42
f 15/18/12 23/20/12 84/19/43
f 49/26/45 97/28/45 75/27/45
f 73/51/46 21/72/47 109/52/47
f 51/54/49 99/69/111 100/55/50
f 52/57/51 75/71/172 97/58/52
f 70/60/54 66/60/125 107/61/55
f 58/62/57 81/63/178 79/63/58
f 57/64/60 102/41/117 103/55/61
f 55/65/62 78/86/175 22/66/63
f 72/68/64 110/53/132 99/69/65
f 64/59/67 87/58/184 85/71/68
f 63/51/70 105/53/123 106/52/71
f 61/73/72 84/84/181 23/66/63
f 70/77/73 93/78/190 91/78/74
f 69/79/76 108/61/129 109/52/47
f 64/68/77 60/70/119 104/69/78
f 67/80/80 90/127/187 24/81/63
f 73/83/81 96/85/220 25/81/63
f 51/73/82 18/67/63 22/66/63
f 55/64/84 18/56/50 100/55/50
f 67/79/86 20/72/71 106/52/71
f 63/83/88 20/82/63 24/81/63
f 57/65/90 19/67/63 23/66/63
f 61/54/92 19/56/61 103/55/61
f 94/95/17 46/412/323 47/96/134
f 95/98/136 47/90/325 45/38/136
f 81/100/138 83/123/326 35/88/138
f 35/101/140 83/121/327 82/102/42
f 37/104/142 38/413/328 86/105/143
f 86/107/145 38/87/329 36/34/44
f 49/109/146 50/118/330 98/110/147
f 50/89/149 48/35/16 96/112/16
f 28/114/151 29/413/331 77/105/152
f 77/107/153 29/87/332 27/13/154
f 88/117/21 40/414/324 41/118/156
f 41/89/158 39/12/333 87/119/158
f 79/120/160 31/415/334 32/101/160
f 32/88/162 30/42/40 78/122/40
f 43/124/164 44/96/335 92/97/165
f 92/98/167 44/90/336 42/31/20
f 69/80/168 21/82/63 25/81/63
f 76/128/83 77/416/337 53/129/170
f 53/91/171 77/417/338 75/27/172
f 79/131/58 80/418/339 56/132/173
f 56/92/174 80/419/340 78/46/175
f 82/134/91 83/418/341 59/132/176
f 59/92/177 83/419/342 81/17/178
f 85/136/68 86/416/343 62/129/179
f 62/91/180 86/417/344 84/19/181
f 88/138/89 89/420/345 65/139/182
f 65/93/183 89/421/346 87/28/184
f 91/141/74 92/422/347 68/142/185
f 68/94/186 92/423/348 90/24/187
f 94/144/169 95/422/349 71/142/188
f 71/94/189 95/423/350 93/44/190
f 97/146/52 98/420/351 74/139/191
f 150/157/192 149/160/192 142/158/192
f 149/160/193 151/162/194 143/161/194
f 151/162/194 152/160/195 144/158/195
f 152/160/196 153/157/196 145/159/196
f 153/157/197 154/164/198 146/163/198
f 154/164/198 155/166/199 147/165/199
f 155/166/200 156/164/201 148/163/201
f 156/164/201 150/157/202 141/159/202
f 157/167/203 116/167/18 115/168/18
f 127/168/205 114/168/45 113/167/45
f 158/167/206 128/175/207 118/169/207
f 125/168/38 115/168/38 114/168/38
f 118/169/209 120/172/209 119/171/209
f 120/172/194 122/172/194 121/171/194
f 122/172/210 124/169/210 123/170/210
f 128/173/14 126/173/14 124/174/14
f 126/175/63 128/175/63 158/167/63
f 124/169/208 126/175/208 157/167/203
f 119/171/38 121/171/38 123/170/38
f 130/176/211 132/179/211 131/177/211
f 132/179/14 134/179/14 133/177/14
f 134/179/212 136/176/212 135/178/212
f 136/176/213 138/181/213 137/180/213
f 138/181/38 140/181/38 139/180/38
f 140/181/214 130/176/214 129/178/214
f 173/5/3 184/7/6 13/14/6
f 158/167/14 113/167/14 116/167/14
f 117/170/38 123/170/38 125/168/38
f 118/174/14 124/174/14 122/200/14
f 162/201/215 161/204/215 168/202/215
f 161/204/45 163/206/45 169/205/45
f 163/206/216 164/208/216 170/207/216
f 164/208/217 165/206/217 171/205/217
f 165/206/18 166/204/18 172/202/18
f 166/204/218 162/201/218 167/203/218
f 74/93/219 98/421/352 96/22/220
f 206/226/14 209/231/14 188/227/14
f 217/226/14 193/227/14 185/227/14
f 187/227/38 214/231/38 213/226/38
f 209/228/221 202/228/221 186/229/222
f 209/231/18 224/226/18 222/226/18
f 186/227/38 202/231/38 201/226/38
f 214/228/223 193/229/233 196/229/224
f 220/232/14 218/233/14 246/233/14
f 212/234/226 257/235/227 258/235/227
f 258/236/14 199/237/14 246/233/14
f 209/228/221 195/229/221 194/229/221
f 198/237/14 259/236/14 233/233/14
f 204/232/38 223/226/228 203/226/228
f 222/238/194 224/238/194 208/238/194
f 207/234/230 211/239/210 204/239/210
f 211/239/210 210/240/217 205/240/217
f 210/241/217 206/242/231 201/242/231
f 218/234/226 220/239/210 215/239/210
f 220/239/210 219/240/217 216/240/217
f 219/241/217 217/242/231 213/242/231
f 200/234/230 197/243/18 198/243/18
f 211/232/14 207/233/14 233/233/14
f 215/232/38 253/232/38 251/233/38
f 193/229/233 214/228/223 187/229/234
f 208/226/235 195/227/225 245/227/236
f 195/229/221 209/228/221 214/228/223
f 203/244/228 223/244/228 226/245/238
f 194/229/221 225/229/240 226/228/240
f 221/244/232 255/244/232 227/246/241
f 196/229/224 193/229/233 228/229/63
f 234/242/243 237/242/243 232/242/194
f 237/226/38 194/227/38 229/227/38
f 230/227/14 195/227/14 234/226/14
f 238/247/244 233/234/248 259/235/245
f 238/247/244 240/239/249 235/239/247
f 240/239/249 239/240/216 236/240/216
f 239/241/216 237/242/243 234/242/243
f 200/233/250 204/232/38 240/232/229
f 211/232/14 235/232/14 208/226/14
f 194/229/221 195/229/221 230/229/63
f 247/242/243 250/242/243 244/242/194
f 250/226/38 245/227/38 241/227/38
f 242/227/14 196/227/14 247/226/14
f 251/234/252 246/234/252 199/243/45
f 251/234/252 253/239/209 248/239/209
f 253/239/209 252/240/216 249/240/216
f 252/241/216 250/242/243 247/242/243
f 254/226/38 253/232/38 215/232/38
f 220/232/14 248/232/14 255/226/232
f 245/229/221 196/229/224 242/229/63
f 200/233/250 238/248/251 260/236/253
f 257/236/38 212/233/38 251/233/38
f 190/242/194 189/242/194 201/242/231
f 217/242/231 192/242/194 191/242/194
f 261/249/14 271/424/14 263/250/14
f 263/252/254 266/252/254 265/253/254
f 266/250/38 268/424/38 264/249/38
f 268/254/255 271/254/255 261/255/255
f 265/256/256 264/257/256 261/257/256
f 267/249/38 268/424/38 266/250/38
f 266/252/257 263/252/257 272/253/257
f 263/250/14 271/424/14 270/249/14
f 271/254/258 268/254/258 267/255/258
f 272/256/259 270/257/259 267/257/259
f 273/249/14 283/424/14 275/250/14
f 275/252/254 278/252/254 277/253/254
f 278/250/38 280/424/38 276/249/38
f 280/254/255 283/254/255 273/255/255
f 277/256/256 276/257/256 273/257/256
f 279/249/38 280/424/38 278/250/38
f 278/252/257 275/252/257 284/253/257
f 275/250/14 283/424/14 282/249/14
f 283/254/258 280/254/258 279/255/258
f 284/256/259 282/257/259 279/257/259
f 298/258/260 303/258/261 302/259/261
f 287/260/256 297/260/260 296/261/256
f 286/258/256 298/258/260 297/259/260
f 285/262/256 299/262/256 298/263/260
f 324/264/255 323/280/255 298/265/255
f 322/267/255 321/276/255 296/268/255
f 296/270/255 321/425/255 320/271/255
f 295/273/255 320/426/255 319/274/255
f 291/274/262 292/426/262 289/273/262
f 292/271/262 312/425/262 288/270/262
f 312/276/262 311/267/262 287/269/262
f 311/277/262 310/283/262 286/278/262
f 310/280/262 293/264/262 285/266/262
f 289/272/263 295/272/263 294/281/263
f 289/282/263 300/268/264 301/268/264
f 296/261/38 301/261/38 300/261/38
f 323/283/265 322/277/265 302/279/265
f 307/286/259 315/286/266 314/287/259
f 306/288/259 316/288/273 315/289/266
f 304/290/259 318/290/259 317/291/259
f 319/292/258 320/307/258 317/293/258
f 320/295/258 321/306/258 316/296/258
f 322/298/258 323/302/258 314/299/258
f 314/284/258 323/427/258 324/301/258
f 293/301/267 310/427/267 308/284/267
f 310/302/267 311/298/267 307/300/267
f 311/303/267 312/312/267 306/304/267
f 312/306/267 292/295/267 305/297/267
f 292/307/267 291/292/267 304/294/267
f 327/308/268 328/308/353 313/309/268
f 325/310/269 330/310/269 329/311/269
f 316/296/258 329/296/258 330/297/270
f 306/296/267 305/297/267 325/297/271
f 314/287/14 328/287/14 327/287/14
f 306/288/38 326/288/38 329/288/38
f 317/291/14 330/291/14 325/291/14
f 321/312/272 322/303/272 331/305/272
f 316/288/273 332/288/274 331/289/274
f 352/313/275 343/346/275 342/314/276
f 342/316/276 344/337/277 355/317/277
f 344/319/277 345/314/278 357/315/278
f 345/316/278 346/332/279 359/321/279
f 359/313/279 346/346/279 347/322/280
f 347/324/280 348/345/281 363/325/281
f 337/327/282 336/428/283 385/328/283
f 348/330/281 349/322/284 365/323/284
f 365/326/284 349/324/284 343/332/275
f 335/333/63 342/316/63 343/332/63
f 336/334/63 344/429/63 342/335/63
f 337/333/63 345/316/63 344/337/63
f 338/339/63 346/339/63 345/335/63
f 339/340/63 347/324/63 346/332/63
f 340/341/63 348/430/63 347/342/63
f 340/344/63 341/340/63 349/324/63
f 334/346/285 384/431/285 383/329/286
f 341/340/287 390/432/287 384/347/285
f 339/340/288 388/432/288 389/348/289
f 337/333/282 386/349/282 387/347/290
f 336/338/283 335/333/286 383/349/286
f 341/351/287 340/433/289 389/352/289
f 338/346/290 387/431/290 388/353/288
f 366/354/284 351/376/275 391/355/275
f 354/357/291 351/401/319 367/358/292
f 364/360/294 366/371/284 398/361/284
f 362/363/295 360/401/296 376/358/296
f 396/356/297 362/354/297 364/365/294
f 355/367/298 371/386/298 369/368/299
f 395/370/300 360/434/300 362/371/297
f 363/372/301 379/388/301 377/373/302
f 394/375/303 358/384/303 360/376/300
f 354/357/291 370/359/293 372/377/304
f 356/379/277 358/387/303 394/380/303
f 364/382/306 362/363/295 378/364/295
f 354/384/276 356/435/277 393/385/277
f 357/369/307 373/368/307 371/386/298
f 391/370/275 351/434/275 354/387/276
f 365/374/308 381/373/308 379/388/301
f 382/389/309 381/394/309 368/390/310
f 379/392/311 381/394/309 382/389/309
f 377/394/312 379/392/311 380/393/311
f 375/390/313 377/394/312 378/389/312
f 373/395/314 375/390/313 376/391/313
f 371/397/315 373/395/314 374/396/314
f 370/396/316 369/395/316 371/397/315
f 367/391/310 368/390/310 369/395/316
f 361/374/302 377/373/302 375/399/317
f 366/363/318 382/364/318 367/358/292
f 352/400/320 353/369/299 369/368/299
f 360/401/296 358/357/322 374/359/321
f 365/374/308 352/400/320 368/399/320
f 359/400/317 375/399/317 373/368/307
f 364/382/306 380/383/306 382/364/318
f 356/378/305 372/377/304 374/359/321
f 341/343/63 334/339/63 343/339/63
